<svg width="331" height="273" xmlns="http://www.w3.org/2000/svg" xmlns:xlink="http://www.w3.org/1999/xlink" overflow="hidden"><defs><clipPath id="clip0"><rect x="463" y="154" width="331" height="273"/></clipPath></defs><g clip-path="url(#clip0)" transform="translate(-463 -154)"><path d="M545.5 269C545.5 226.75 579.75 192.5 622 192.5 664.25 192.5 698.5 226.75 698.5 269 698.5 311.25 664.25 345.5 622 345.5 579.75 345.5 545.5 311.25 545.5 269Z" stroke="#FFFFFF" stroke-width="3" stroke-miterlimit="8" fill="none" fill-rule="evenodd"/><path d="M539.543 195.666C536.539 187.694 554.763 173.448 580.247 163.847 605.732 154.247 628.825 152.926 631.828 160.899 634.832 168.871 616.608 183.116 591.124 192.717 565.64 202.318 542.546 203.638 539.543 195.666Z" stroke="#FFFFFF" stroke-width="3" stroke-miterlimit="8" fill="none" fill-rule="evenodd"/><path d="M658.5 351.5C663.75 357.25 669 363 671.5 369.5 674 376 673.5 384.333 673.5 390.5 673.5 396.667 671.833 402.167 671.5 406.5 671.167 410.833 668.833 413.167 671.5 416.5 674.167 419.833 687.5 426.5 687.5 426.5L687.5 426.5" stroke="#FFFFFF" stroke-width="3" stroke-miterlimit="8" fill="none" fill-rule="evenodd"/><path d="M548.316 288.98 548.316 288.98C547.518 288.361 546.753 287.696 545.921 287.122 545.595 286.897 545.193 286.801 544.857 286.592 544.481 286.357 544.189 285.993 543.792 285.796 541.935 284.87 543.498 286.306 541.664 285 541.358 284.782 541.185 284.403 540.866 284.204 540.064 283.704 539.525 283.744 538.737 283.408 536.26 282.349 539.386 283.27 535.012 281.816 534.48 281.639 533.936 281.493 533.415 281.285 532.819 281.047 532.219 280.584 531.553 280.489 531.201 280.439 530.843 280.489 530.488 280.489L530.488 280.489 516.918 276.774 503.348 274.651 493.769 273.325 488.714 272.794C488.437 272.748 488.195 272.554 487.915 272.528 487.209 272.464 486.496 272.528 485.787 272.528L485.787 272.528 481.263 273.325 475.409 274.651C474.587 275.744 473.795 276.331 473.547 277.57 473.512 277.743 473.547 277.924 473.547 278.101L473.547 278.101C473.103 279.162 472.707 280.244 472.216 281.285 471.395 283.026 471.405 282.127 470.886 283.938 470.837 284.108 470.886 284.292 470.886 284.469L470.886 284.469 468.757 290.572 467.693 299.328 466.363 307.289 464.5 316.045C464.589 320.202 464.677 324.359 464.766 328.516 464.677 332.231 464.589 335.946 464.5 339.661 464.589 343.287 464.677 346.913 464.766 350.54 465.971 354.143 465.157 352.829 466.629 354.785 466.717 355.139 466.713 355.53 466.895 355.847 467.081 356.172 467.693 356.643 467.693 356.643L467.693 356.643 468.225 358.5C468.935 358.058 469.677 357.664 470.354 357.173 470.658 356.953 470.863 356.618 471.152 356.377 471.398 356.173 471.684 356.023 471.95 355.847 472.245 353.793 471.936 354.549 472.483 353.459L472.483 353.459C472.749 352.574 472.969 351.675 473.281 350.805 473.414 350.433 473.674 350.114 473.813 349.744 474.756 347.237 473.575 349.688 474.345 348.152L474.345 348.152C474.611 347.444 474.83 346.717 475.143 346.029 475.767 344.66 475.63 345.834 475.942 344.437 476.316 342.758 475.653 342.845 476.474 342.845L476.474 342.845C476.917 341.96 477.491 341.129 477.804 340.191 478.543 337.981 477.298 338.069 478.336 338.069L478.336 338.069C478.425 337.184 478.467 336.294 478.602 335.415 478.981 332.963 478.868 336.569 478.868 333.558L478.868 333.558C479.135 332.85 479.483 332.168 479.667 331.435 479.84 330.743 479.933 329.312 479.933 329.312L479.933 329.312C481.053 327.078 480.436 327.749 481.263 326.924L482.328 326.924 482.328 326.924C482.594 327.809 482.853 328.695 483.126 329.578 483.208 329.845 483.315 330.105 483.392 330.374 483.492 330.724 483.494 331.109 483.658 331.435 483.698 331.514 483.835 331.435 483.924 331.435L483.924 331.435C483.926 331.438 485.034 333.869 485.521 334.354 486.805 335.634 485.977 334.202 486.585 335.415L486.585 335.415C487.117 336.211 487.596 337.045 488.181 337.803 488.487 338.2 488.891 338.511 489.246 338.865L489.778 339.395 489.778 339.395C490.487 339.041 491.287 338.828 491.906 338.334 492.216 338.087 492.313 337.648 492.439 337.273 492.582 336.845 492.705 335.946 492.705 335.946L492.705 335.946C493.35 334.787 493.999 333.969 494.301 332.762 494.323 332.676 494.301 332.585 494.301 332.496L494.301 332.496C494.39 331.7 494.428 330.897 494.567 330.108 494.694 329.39 495.099 327.985 495.099 327.985L495.099 327.985C496.304 324.382 496.164 325.92 496.164 323.475L496.164 323.475C497.609 322.239 497.467 321.956 498.825 321.617 498.911 321.596 499.002 321.617 499.091 321.617L499.091 321.617C499.357 322.325 499.649 323.023 499.889 323.74 500.334 325.071 499.846 324.493 500.421 325.067L500.421 325.067C500.953 326.04 501.417 327.053 502.018 327.985 502.221 328.301 502.816 328.781 502.816 328.781L502.816 328.781C503.525 329.666 504.252 330.537 504.945 331.435 505.139 331.688 505.227 332.032 505.477 332.231 505.696 332.406 506.009 332.408 506.275 332.496L506.275 332.496C507.162 332.585 508.055 332.626 508.936 332.762 509.213 332.804 509.734 333.027 509.734 333.027L509.734 333.027C510.382 332.165 511.863 330.663 511.863 329.312L511.863 329.047 511.863 329.047C512.129 328.162 512.407 327.281 512.661 326.393 512.948 325.39 512.927 325.662 512.927 325.067L512.927 325.067C513.527 321.18 513.459 322.781 513.459 320.29L513.459 320.29 513.725 318.964C515.749 317.522 514.905 317.977 516.12 317.372L516.12 317.372C516.741 318.256 517.314 319.176 517.983 320.025 518.37 320.517 518.87 320.91 519.313 321.352L519.313 321.352C519.845 322.059 520.388 322.759 520.909 323.475 521.544 324.344 521.107 324.271 521.708 324.271L521.708 324.271C523.599 326.427 522.775 326.356 524.901 326.659 525.076 326.684 525.255 326.659 525.433 326.659L525.433 326.659 528.36 326.659 528.36 326.659C528.626 325.863 528.941 325.081 529.158 324.271 529.297 323.751 529.424 322.679 529.424 322.679L529.424 322.679C530.306 320.039 530.222 321.13 530.222 319.494L530.222 319.494C530.518 315.958 530.488 317.375 530.488 315.249L530.488 315.249 530.488 313.657C533.493 312.022 532.304 312.065 533.681 312.065L533.681 312.065C533.859 312.861 534.015 313.662 534.214 314.453 534.434 315.333 534.222 315.249 534.746 315.249L534.746 315.249C534.931 315.619 536.126 318.137 536.608 318.698 536.816 318.941 537.406 319.229 537.406 319.229L537.406 319.229C540.219 320.787 538.953 320.218 541.132 321.086L541.132 321.086 544.325 321.883C546.868 319.628 546.242 320.712 546.985 319.229L546.985 319.229C547.587 316.229 547.518 317.478 547.518 315.514L547.518 315.514 548.05 313.922C548.338 310.474 548.316 311.803 548.316 309.942L548.316 309.942C550.777 309.022 549.687 309.146 551.509 309.146L551.509 309.146C554.769 307.964 553.398 308.085 555.5 308.085L555.5 308.085C555.145 306.846 554.862 305.585 554.436 304.37 554.239 303.81 553.858 303.329 553.638 302.778 553.502 302.439 553.371 301.716 553.371 301.716L553.371 301.716C552.928 301.097 552.554 300.422 552.041 299.859 551.659 299.44 551.051 299.251 550.711 298.798 550.491 298.506 550.608 298.062 550.445 297.736 549.331 295.515 549.38 296.859 549.38 295.879L549.38 295.879 548.316 288.98Z" stroke="#FFFFFF" stroke-width="1.33333" stroke-miterlimit="8" fill="#FFFFFF" fill-rule="evenodd"/><path d="M10.9333 2.16189C10.1095 3.26037 9.3157 3.85029 9.06667 5.09522 9.03181 5.2695 9.06667 5.45081 9.06667 5.62856 8.62226 6.69522 8.22541 7.78299 7.73333 8.82856 6.90982 10.5784 6.92 9.67507 6.4 11.4952 6.35118 11.6661 6.4 11.8508 6.4 12.0286L4.26667 18.1619 3.2 26.9619 1.86667 34.9619 0 43.7619C0.0889239 47.9396 0.177743 52.1175 0.266667 56.2952 0.177743 60.0286 0.0889239 63.7619 0 67.4952 0.0889239 71.1396 0.177743 74.7841 0.266667 78.4286 1.47391 82.0502 0.658688 80.729 2.13333 82.6952 2.22226 83.0508 2.21816 83.4437 2.4 83.7619 2.58709 84.0893 3.2 84.5619 3.2 84.5619L3.73333 86.4286C4.44441 85.9842 5.18845 85.5885 5.86667 85.0952 6.17165 84.8734 6.3769 84.5367 6.66667 84.2952 6.91286 84.0901 7.2 83.9396 7.46667 83.7619 7.76147 81.6985 7.45228 82.4574 8 81.3619 8.26667 80.473 8.48787 79.5691 8.8 78.6952 8.93375 78.3208 9.19381 78.0007 9.33333 77.6286 10.278 75.1096 9.09459 77.5727 9.86667 76.0286 10.1333 75.3175 10.3524 74.5867 10.6667 73.8952 11.2921 72.5194 11.1546 73.6992 11.4667 72.2952 11.8417 70.6076 11.1772 70.6952 12 70.6952 12.4444 69.8063 13.0191 68.9713 13.3333 68.0286 14.0738 65.807 12.8259 65.8952 13.8667 65.8952 13.9556 65.0063 13.9975 64.1115 14.1333 63.2286 14.5124 60.7644 14.4 64.388 14.4 61.3619 14.6667 60.6508 15.0159 59.9654 15.2 59.2286 15.3739 58.5333 15.4667 57.0952 15.4667 57.0952 16.5895 54.8494 15.9711 55.5241 16.8 54.6952L17.8667 54.6952C18.1333 55.5841 18.3937 56.4749 18.6667 57.3619 18.7493 57.6306 18.8561 57.8917 18.9333 58.1619 19.034 58.5143 19.0361 58.9008 19.2 59.2286 19.2398 59.308 19.3777 59.2286 19.4667 59.2286 19.4681 59.2315 20.5795 61.6748 21.0667 62.1619 22.3538 63.449 21.5238 62.0095 22.1333 63.2286 22.6667 64.0286 23.1471 64.8665 23.7333 65.6286 24.0399 66.0271 24.4444 66.3396 24.8 66.6952L25.3333 67.2286C26.0444 66.873 26.8459 66.6586 27.4667 66.1619 27.7771 65.9136 27.8743 65.4723 28 65.0952 28.1433 64.6652 28.2667 63.7619 28.2667 63.7619 28.9136 62.5975 29.5634 61.7751 29.8667 60.5619 29.8882 60.4757 29.8667 60.3841 29.8667 60.2952 29.9556 59.4952 29.9935 58.6879 30.1333 57.8952 30.2607 57.1733 30.6667 55.7619 30.6667 55.7619 31.8739 52.1403 31.7333 53.6863 31.7333 51.2286 33.1822 49.9867 33.0391 49.7022 34.4 49.3619 34.4862 49.3404 34.5777 49.3619 34.6667 49.3619 34.9333 50.073 35.2265 50.7747 35.4667 51.4952 35.9124 52.8324 35.4232 52.2518 36 52.8286 36.5333 53.8063 36.9977 54.825 37.6 55.7619 37.8039 56.0792 38.4 56.5619 38.4 56.5619 39.1111 57.4508 39.8393 58.3263 40.5333 59.2286 40.7287 59.4826 40.8164 59.8284 41.0667 60.0286 41.2862 60.2042 41.6 60.2063 41.8667 60.2952 42.7556 60.3841 43.6504 60.426 44.5333 60.5619 44.8111 60.6046 45.3333 60.8286 45.3333 60.8286 45.9829 59.9624 47.4667 58.4526 47.4667 57.0952L47.4667 56.8286C47.7333 55.9396 48.0118 55.0542 48.2667 54.1619 48.5549 53.1531 48.5333 53.4268 48.5333 52.8286 49.1343 48.9226 49.0667 50.531 49.0667 48.0286L49.3333 46.6952C51.3618 45.2464 50.5161 45.7038 51.7333 45.0952 52.3556 45.9841 52.9297 46.9087 53.6 47.7619 53.9883 48.2562 54.4889 48.6508 54.9333 49.0952 55.4667 49.8063 56.0105 50.5097 56.5333 51.2286 57.1689 52.1025 56.7314 52.0286 57.3333 52.0286 59.2293 54.1953 58.4026 54.1242 60.5333 54.4286 60.7093 54.4537 60.8889 54.4286 61.0667 54.4286L64 54.4286C64.2667 53.6286 64.5827 52.8434 64.8 52.0286 64.9393 51.5061 65.0667 50.4286 65.0667 50.4286 65.951 47.7755 65.8667 48.8718 65.8667 47.2286 66.1628 43.6742 66.1333 45.0989 66.1333 42.9619L66.1333 41.3619C69.1447 39.7194 67.9529 39.7619 69.3333 39.7619 69.5111 40.5619 69.6679 41.3668 69.8667 42.1619 70.0878 43.0462 69.8756 42.9619 70.4 42.9619 70.5857 43.3333 71.7831 45.8644 72.2667 46.4286 72.4753 46.6719 73.0667 46.9619 73.0667 46.9619 75.8851 48.5277 74.6169 47.9554 76.8 48.8286L80 49.6286C82.5486 47.3632 81.9214 48.4526 82.6667 46.9619 83.2697 43.9466 83.2 45.2017 83.2 43.2286L83.7333 41.6286C84.0222 38.1628 84 39.4989 84 37.6286 85.2331 37.1662 85.5766 36.9662 85.84 36.8818L86.5312 36.8547 85.2904 35.0032C82.9024 30.5158 80.9997 25.856 79.5753 21.0959L77.9848 12.9833 77.3333 12.5619C77.0265 12.3427 76.8531 11.9618 76.5333 11.7619 75.7298 11.2596 75.1898 11.3004 74.4 10.9619 71.9172 9.89785 75.0507 10.8232 70.6667 9.36189 70.1333 9.18415 69.5887 9.03738 69.0667 8.82856 68.4691 8.5895 67.8676 8.12389 67.2 8.02856 66.848 7.97827 66.4889 8.02856 66.1333 8.02856L52.5333 4.29522 38.9333 2.16189 29.3333 0.828556 24.2667 0.295223C23.9894 0.249029 23.7466 0.0539633 23.4667 0.0285564 22.7584-0.0358005 22.0444 0.0285564 21.3333 0.0285564L16.8 0.828556Z" stroke="#FFFFFF" stroke-width="1.33333" stroke-miterlimit="8" fill="#FFFFFF" fill-rule="evenodd" transform="matrix(-0.770679 0.637224 0.637224 0.770679 739.872 171.757)"/><path d="M584.754 257.726C578.842 244.566 586.35 228.371 601.524 221.553 616.699 214.735 633.793 219.876 639.706 233.036 645.619 246.196 638.11 262.391 622.936 269.208 607.762 276.026 590.667 270.885 584.754 257.726Z" stroke="#FFFFFF" stroke-width="1.33333" stroke-miterlimit="8" fill="#FFFFFF" fill-rule="evenodd"/></g></svg>