<svg width="711" height="517" xmlns="http://www.w3.org/2000/svg" xmlns:xlink="http://www.w3.org/1999/xlink" overflow="hidden"><g transform="translate(-322 -94)"><path d="M488.879 659.586 488.622 660.357 488.56 660.357ZM510 608.445 509.467 599.658 509.467 367.28 509.467 360.874 509.467 0 462.57 0 462.57 360.874 461.505 360.874 462.57 366.284 462.57 367.28 462.767 367.28 470.048 404.237 487.154 534.666 487.979 534.557 487.876 534.912C489.143 548.365 489.78 563.641 489.719 579.108 489.582 613.819 486.023 643.295 481.013 655.907L477.335 660.357 475.36 660.357 475.36 661.558 471.647 661.558 468.812 655.219 463.205 620.319 464.436 620.319 445.517 533.013 445.517 530.634 0 705.733 428.597 705.733 464.604 705.733 464.605 706 465.347 705.733 476.826 705.733 476.826 701.6 479.357 700.689C493.315 690.351 504.421 665.711 508.431 633.763 509.471 625.472 509.994 616.959 510 608.445Z" fill="#6BA18A" fill-rule="evenodd" transform="matrix(-1.83697e-16 -1 -1 1.83697e-16 1033 608)"/><path d="M421.741 142.992C395.249 143.223 372.993 138.264 372.032 131.917 371.07 125.57 391.767 120.238 418.259 120.007 420.778 119.986 423.3 120.011 425.801 120.084" stroke="#FFFFFF" stroke-width="6" stroke-miterlimit="8" fill="none" fill-rule="evenodd"/><path d="M422 143 508.576 162.208" stroke="#FFFFFF" stroke-width="6" stroke-miterlimit="8" fill="none" fill-rule="evenodd"/><path d="M0 0 176 449.92" stroke="#FFFFFF" stroke-width="6" stroke-miterlimit="8" fill="none" fill-rule="evenodd" transform="matrix(1 0 0 -1 328 608.92)"/><path d="M666.2 146.24 487 120" stroke="#FFFFFF" stroke-width="6" stroke-miterlimit="8" fill="none" fill-rule="evenodd"/><path d="M0 0 62.0287 0.000104987" stroke="#FFFFFF" stroke-width="6" stroke-miterlimit="8" fill="none" fill-rule="evenodd" transform="matrix(-1 0 0 1 488.029 120)"/><path d="M0 0 364.8 0.000104987" stroke="#FFFFFF" stroke-width="6" stroke-miterlimit="8" fill="none" fill-rule="evenodd" transform="matrix(-1 0 0 1 1030.8 146)"/><path d="M0 0 627.988 0.000104987" stroke="#FFFFFF" stroke-width="6" stroke-miterlimit="8" fill="none" fill-rule="evenodd" transform="matrix(-1 0 0 1 1027.99 98)"/><path d="M327.056 136.275C325.514 118.845 355.463 103.155 400.403 97.8488" stroke="#FFFFFF" stroke-width="6" stroke-miterlimit="8" fill="none" fill-rule="evenodd"/><path d="M0 0 378.667 0.000104987" stroke="#FFFFFF" stroke-width="6" stroke-miterlimit="8" fill="none" fill-rule="evenodd" transform="matrix(-1 0 0 1 1029.67 201)"/><path d="M652.392 200.787 574 193" stroke="#FFFFFF" stroke-width="6" stroke-miterlimit="8" fill="none" fill-rule="evenodd"/><path d="M574.474 192.48 559 132" stroke="#FFFFFF" stroke-width="6" stroke-miterlimit="8" fill="none" fill-rule="evenodd"/><path d="M574.361 192.589C554.78 203.479 521.739 210.016 486.367 210" stroke="#FFFFFF" stroke-width="6" stroke-miterlimit="8" fill="none" fill-rule="evenodd"/><path d="M694 184C694 151.967 719.744 126 751.5 126 783.256 126 809 151.967 809 184 809 216.033 783.256 242 751.5 242 719.744 242 694 216.033 694 184Z" stroke="#FFFFFF" stroke-width="6" stroke-miterlimit="8" fill="#306E57" fill-rule="evenodd"/><path d="M719.502 159.859C718.42 148.611 730.784 138.219 747.118 136.648 763.451 135.077 777.569 142.923 778.651 154.171 779.733 165.419 767.369 175.811 751.035 177.382 734.701 178.953 720.583 171.107 719.502 159.859Z" stroke="#FFFFFF" stroke-width="1.33333" stroke-miterlimit="8" fill="#FFFFFF" fill-rule="evenodd"/><path d="M654 372.5C654 320.861 695.638 279 747 279 798.362 279 840 320.861 840 372.5 840 424.139 798.362 466 747 466 695.638 466 654 424.139 654 372.5Z" stroke="#FFFFFF" stroke-width="6" stroke-miterlimit="8" fill="#6BA18A" fill-rule="evenodd"/><path d="M741.251 437.625C734.762 423.708 743.036 406.116 759.73 398.332 776.425 390.548 795.219 395.52 801.708 409.437 808.197 423.354 799.923 440.946 783.229 448.73 766.534 456.514 747.74 451.542 741.251 437.625Z" stroke="#FFFFFF" stroke-width="1.33333" stroke-miterlimit="8" fill="#FFFFFF" fill-rule="evenodd"/><path d="M572 489.5C572 426.816 622.592 376 685 376 747.408 376 798 426.816 798 489.5 798 552.184 747.408 603 685 603 622.592 603 572 552.184 572 489.5Z" stroke="#FFFFFF" stroke-width="6" stroke-miterlimit="8" fill="#035C37" fill-rule="evenodd"/><path d="M745.468 561.596C742.31 558.99 744.443 551.189 750.233 544.172 756.023 537.154 763.276 533.578 766.434 536.183 769.592 538.789 767.459 546.59 761.669 553.607 755.879 560.625 748.625 564.201 745.468 561.596Z" stroke="#FFFFFF" stroke-width="1.33333" stroke-miterlimit="8" fill="#FFFFFF" fill-rule="evenodd"/><path d="M589.642 488.409C595.047 486.805 601.718 493.217 604.542 502.73 607.365 512.244 605.273 521.257 599.867 522.861 594.462 524.465 587.791 518.054 584.968 508.54 582.144 499.026 584.237 490.014 589.642 488.409Z" stroke="#FFFFFF" stroke-width="1.33333" stroke-miterlimit="8" fill="#FFFFFF" fill-rule="evenodd"/><text fill="#FFFFFF" font-family="Yu Gothic,Yu Gothic_MSFontService,sans-serif" font-weight="400" font-size="24" transform="matrix(0.28453 0.958667 -0.958667 0.28453 585.762 502)">_</text><path d="M696.939 391.895C698.095 388.099 705.275 386.923 712.975 389.267 720.675 391.612 725.98 396.591 724.824 400.387 723.668 404.183 716.489 405.359 708.789 403.014 701.088 400.669 695.783 395.691 696.939 391.895Z" stroke="#FFFFFF" stroke-width="1.33333" stroke-miterlimit="8" fill="#FFFFFF" fill-rule="evenodd"/></g></svg>