<svg width="141" height="142" xmlns="http://www.w3.org/2000/svg" xmlns:xlink="http://www.w3.org/1999/xlink" overflow="hidden"><g transform="translate(-562 -217)"><path d="M564.5 288C564.5 250.169 595.169 219.5 633 219.5 670.832 219.5 701.5 250.169 701.5 288 701.5 325.832 670.832 356.5 633 356.5 595.169 356.5 564.5 325.832 564.5 288Z" stroke="#000000" stroke-width="3" stroke-miterlimit="8" fill="#B00507" fill-rule="evenodd"/><path d="M602 289C602 271.327 616.327 257 634 257 651.673 257 666 271.327 666 289 666 306.673 651.673 321 634 321 616.327 321 602 306.673 602 289Z" fill="#FFFFFF" fill-rule="evenodd"/><text font-family="UD Digi Kyokasho NP,UD Digi Kyokasho NP_MSFontService,sans-serif" font-weight="700" font-size="48" transform="translate(617.215 307)">3</text><path d="M685.104 245 689.287 250.024C696.682 260.873 701 273.951 701 288.028 701 320.875 677.49 348.281 646.238 354.619L632.417 356 632.414 356 621.971 355.217C611.754 353.67 602.279 349.888 594.07 344.392L589 340.246Z" fill="#595959" fill-rule="evenodd" fill-opacity="0.301961"/></g></svg>