<svg width="141" height="141" xmlns="http://www.w3.org/2000/svg" xmlns:xlink="http://www.w3.org/1999/xlink" overflow="hidden"><g transform="translate(-987 -494)"><path d="M989.5 565C989.5 527.169 1020.17 496.5 1058 496.5 1095.83 496.5 1126.5 527.169 1126.5 565 1126.5 602.832 1095.83 633.5 1058 633.5 1020.17 633.5 989.5 602.832 989.5 565Z" stroke="#000000" stroke-width="3" stroke-miterlimit="8" fill="#FFFFFF" fill-rule="evenodd"/><path d="M1005.1 521 1109.9 521 1114.3 526.334C1121.69 537.267 1126 550.447 1126 564.633 1126 578.82 1121.69 592 1114.3 602.932L1109.3 609 1005.7 609 1000.7 602.932C993.313 592 989 578.82 989 564.633 989 550.447 993.313 537.267 1000.7 526.334Z" fill="#D3AC16" fill-rule="evenodd"/><path d="M1027 566C1027 548.327 1041.33 534 1059 534 1076.67 534 1091 548.327 1091 566 1091 583.673 1076.67 598 1059 598 1041.33 598 1027 583.673 1027 566Z" fill="#FFFFFF" fill-rule="evenodd"/><text font-family="UD Digi Kyokasho NP,UD Digi Kyokasho NP_MSFontService,sans-serif" font-weight="700" font-size="48" transform="translate(1042.21 584)">9</text><path d="M1110.1 521 1114.29 526.07C1121.68 537.016 1126 550.211 1126 564.416 1126 597.559 1102.49 625.211 1071.24 631.607L1057.42 633 1057.41 633 1046.97 632.21C1036.75 630.649 1027.28 626.833 1019.07 621.287L1014 617.104Z" fill="#595959" fill-rule="evenodd" fill-opacity="0.301961"/></g></svg>