<svg width="142" height="141" xmlns="http://www.w3.org/2000/svg" xmlns:xlink="http://www.w3.org/1999/xlink" overflow="hidden"><g transform="translate(-717 -497)"><path d="M720.5 568C720.5 530.169 751.169 499.5 789 499.5 826.832 499.5 857.5 530.169 857.5 568 857.5 605.832 826.832 636.5 789 636.5 751.169 636.5 720.5 605.832 720.5 568Z" stroke="#000000" stroke-width="3" stroke-miterlimit="8" fill="#2E2F2C" fill-rule="evenodd"/><path d="M758 569C758 551.327 772.327 537 790 537 807.673 537 822 551.327 822 569 822 586.673 807.673 601 790 601 772.327 601 758 586.673 758 569Z" fill="#FFFFFF" fill-rule="evenodd"/><text font-family="UD Digi Kyokasho NP,UD Digi Kyokasho NP_MSFontService,sans-serif" font-weight="700" font-size="48" transform="translate(772.557 587)">8</text><path d="M841.104 524 845.287 529.07C852.682 540.016 857 553.211 857 567.416 857 600.559 833.49 628.211 802.238 634.607L788.417 636 788.414 636 777.971 635.21C767.754 633.649 758.279 629.833 750.07 624.287L745 620.104Z" fill="#595959" fill-rule="evenodd" fill-opacity="0.301961"/></g></svg>