<svg width="141" height="142" xmlns="http://www.w3.org/2000/svg" xmlns:xlink="http://www.w3.org/1999/xlink" overflow="hidden"><g transform="translate(-147 -513)"><path d="M149.5 584C149.5 546.169 180.169 515.5 218 515.5 255.832 515.5 286.5 546.169 286.5 584 286.5 621.832 255.832 652.5 218 652.5 180.169 652.5 149.5 621.832 149.5 584Z" stroke="#000000" stroke-width="3" stroke-miterlimit="8" fill="#03842C" fill-rule="evenodd"/><path d="M187 585C187 567.327 201.327 553 219 553 236.673 553 251 567.327 251 585 251 602.673 236.673 617 219 617 201.327 617 187 602.673 187 585Z" fill="#FFFFFF" fill-rule="evenodd"/><text font-family="UD Digi Kyokasho NP,UD Digi Kyokasho NP_MSFontService,sans-serif" font-weight="700" font-size="48" transform="translate(202.228 603)">6</text><path d="M270.104 540 274.287 545.07C281.682 556.016 286 569.211 286 583.416 286 616.559 262.49 644.211 231.238 650.607L217.417 652 217.414 652 206.971 651.21C196.754 649.649 187.279 645.833 179.07 640.287L174 636.104Z" fill="#595959" fill-rule="evenodd" fill-opacity="0.301961"/></g></svg>