<svg width="142" height="141" xmlns="http://www.w3.org/2000/svg" xmlns:xlink="http://www.w3.org/1999/xlink" overflow="hidden"><g transform="translate(-91 -205)"><path d="M93.5001 276C93.5001 238.169 124.169 207.5 162 207.5 199.832 207.5 230.5 238.169 230.5 276 230.5 313.832 199.832 344.5 162 344.5 124.169 344.5 93.5001 313.832 93.5001 276Z" stroke="#000000" stroke-width="3" stroke-miterlimit="8" fill="#D3AC16" fill-rule="evenodd"/><path d="M131 277C131 259.327 145.327 245 163 245 180.673 245 195 259.327 195 277 195 294.673 180.673 309 163 309 145.327 309 131 294.673 131 277Z" fill="#FFFFFF" fill-rule="evenodd"/><text font-family="UD Digi Kyokasho NP,UD Digi Kyokasho NP_MSFontService,sans-serif" font-weight="700" font-size="48" transform="translate(146.329 294)">1</text><path d="M214.104 232 218.287 237.07C225.682 248.016 230 261.211 230 275.416 230 308.559 206.49 336.211 175.238 342.607L161.417 344 161.414 344 150.971 343.21C140.754 341.649 131.279 337.833 123.07 332.287L118 328.104Z" fill="#595959" fill-rule="evenodd" fill-opacity="0.301961"/></g></svg>