<svg width="141" height="142" xmlns="http://www.w3.org/2000/svg" xmlns:xlink="http://www.w3.org/1999/xlink" overflow="hidden"><g transform="translate(-1015 -209)"><path d="M1017.5 280C1017.5 242.169 1048.17 211.5 1086 211.5 1123.83 211.5 1154.5 242.169 1154.5 280 1154.5 317.832 1123.83 348.5 1086 348.5 1048.17 348.5 1017.5 317.832 1017.5 280Z" stroke="#000000" stroke-width="3" stroke-miterlimit="8" fill="#DB5E03" fill-rule="evenodd"/><path d="M1055 281C1055 263.327 1069.33 249 1087 249 1104.67 249 1119 263.327 1119 281 1119 298.673 1104.67 313 1087 313 1069.33 313 1055 298.673 1055 281Z" fill="#FFFFFF" fill-rule="evenodd"/><text font-family="UD Digi Kyokasho NP,UD Digi Kyokasho NP_MSFontService,sans-serif" font-weight="700" font-size="48" transform="translate(1069.67 299)">5</text><path d="M1138.1 236 1142.29 241.07C1149.68 252.016 1154 265.211 1154 279.416 1154 312.559 1130.49 340.211 1099.24 346.607L1085.42 348 1085.41 348 1074.97 347.21C1064.75 345.649 1055.28 341.833 1047.07 336.287L1042 332.104Z" fill="#595959" fill-rule="evenodd" fill-opacity="0.301961"/></g></svg>