<svg width="141" height="141" xmlns="http://www.w3.org/2000/svg" xmlns:xlink="http://www.w3.org/1999/xlink" overflow="hidden"><g transform="translate(-324 -217)"><path d="M326.5 288C326.5 250.169 357.169 219.5 395 219.5 432.832 219.5 463.5 250.169 463.5 288 463.5 325.832 432.832 356.5 395 356.5 357.169 356.5 326.5 325.832 326.5 288Z" stroke="#000000" stroke-width="3" stroke-miterlimit="8" fill="#1252D0" fill-rule="evenodd"/><path d="M364 289C364 271.327 378.327 257 396 257 413.673 257 428 271.327 428 289 428 306.673 413.673 321 396 321 378.327 321 364 306.673 364 289Z" fill="#FFFFFF" fill-rule="evenodd"/><text font-family="UD Digi Kyokasho NP,UD Digi Kyokasho NP_MSFontService,sans-serif" font-weight="700" font-size="48" transform="translate(378.633 307)">2</text><path d="M447.104 244 451.287 249.07C458.682 260.016 463 273.211 463 287.416 463 320.559 439.49 348.211 408.238 354.607L394.417 356 394.414 356 383.971 355.21C373.754 353.649 364.279 349.833 356.07 344.287L351 340.104Z" fill="#595959" fill-rule="evenodd" fill-opacity="0.301961"/></g></svg>