<svg width="141" height="142" xmlns="http://www.w3.org/2000/svg" xmlns:xlink="http://www.w3.org/1999/xlink" overflow="hidden"><g transform="translate(-780 -211)"><path d="M782.5 283C782.5 245.169 813.169 214.5 851 214.5 888.832 214.5 919.5 245.169 919.5 283 919.5 320.832 888.832 351.5 851 351.5 813.169 351.5 782.5 320.832 782.5 283Z" stroke="#000000" stroke-width="3" stroke-miterlimit="8" fill="#CA5B86" fill-rule="evenodd"/><path d="M820 284C820 266.327 834.327 252 852 252 869.673 252 884 266.327 884 284 884 301.673 869.673 316 852 316 834.327 316 820 301.673 820 284Z" fill="#FFFFFF" fill-rule="evenodd"/><text font-family="UD Digi Kyokasho NP,UD Digi Kyokasho NP_MSFontService,sans-serif" font-weight="700" font-size="48" transform="translate(834.937 301)">4</text><path d="M903.104 239 907.287 244.07C914.682 255.016 919 268.211 919 282.416 919 315.559 895.49 343.211 864.238 349.607L850.417 351 850.414 351 839.971 350.21C829.754 348.649 820.279 344.833 812.07 339.287L807 335.104Z" fill="#595959" fill-rule="evenodd" fill-opacity="0.301961"/></g></svg>