<svg width="142" height="142" xmlns="http://www.w3.org/2000/svg" xmlns:xlink="http://www.w3.org/1999/xlink" overflow="hidden"><g transform="translate(-447 -502)"><path d="M449.5 573C449.5 535.169 480.169 504.5 518 504.5 555.832 504.5 586.5 535.169 586.5 573 586.5 610.832 555.832 641.5 518 641.5 480.169 641.5 449.5 610.832 449.5 573Z" stroke="#000000" stroke-width="3" stroke-miterlimit="8" fill="#823700" fill-rule="evenodd"/><path d="M487 574C487 556.327 501.327 542 519 542 536.673 542 551 556.327 551 574 551 591.673 536.673 606 519 606 501.327 606 487 591.673 487 574Z" fill="#FFFFFF" fill-rule="evenodd"/><text font-family="UD Digi Kyokasho NP,UD Digi Kyokasho NP_MSFontService,sans-serif" font-weight="700" font-size="48" transform="translate(502.38 592)">7</text><path d="M570.246 530 574.391 535.024C581.72 545.873 586 558.951 586 573.028 586 605.875 562.7 633.281 531.727 639.619L518.03 641 518.026 641 507.677 640.217C497.551 638.67 488.161 634.888 480.024 629.392L475 625.246Z" fill="#595959" fill-rule="evenodd" fill-opacity="0.301961"/></g></svg>