<svg width="420" height="626" xmlns="http://www.w3.org/2000/svg" xmlns:xlink="http://www.w3.org/1999/xlink" overflow="hidden"><g transform="translate(-430 -35)"><path d="M571.5 106C571.5 68.1685 602.169 37.5001 640 37.5001 677.832 37.5001 708.5 68.1685 708.5 106 708.5 143.832 677.832 174.5 640 174.5 602.169 174.5 571.5 143.832 571.5 106Z" stroke="#000000" stroke-width="3" stroke-miterlimit="8" fill="#D3AC16" fill-rule="evenodd"/><path d="M610 107C610 89.3269 624.327 75 642 75 659.673 75 674 89.3269 674 107 674 124.673 659.673 139 642 139 624.327 139 610 124.673 610 107Z" fill="#FFFFFF" fill-rule="evenodd"/><text font-family="UD Digi Kyokasho NP,UD Digi Kyokasho NP_MSFontService,sans-serif" font-weight="700" font-size="48" transform="translate(624.5 125)">1</text><path d="M693.104 63 697.287 68.0244C704.682 78.8726 709 91.9506 709 106.028 709 138.875 685.49 166.281 654.238 172.619L640.417 174 640.414 174 629.971 173.217C619.754 171.67 610.279 167.888 602.07 162.392L597 158.246Z" fill="#595959" fill-rule="evenodd" fill-opacity="0.301961"/><path d="M571.5 591C571.5 553.169 602.169 522.5 640 522.5 677.832 522.5 708.5 553.169 708.5 591 708.5 628.832 677.832 659.5 640 659.5 602.169 659.5 571.5 628.832 571.5 591Z" stroke="#000000" stroke-width="3" stroke-miterlimit="8" fill="#2E2F2C" fill-rule="evenodd"/><path d="M610 592C610 574.327 624.327 560 642 560 659.673 560 674 574.327 674 592 674 609.673 659.673 624 642 624 624.327 624 610 609.673 610 592Z" fill="#FFFFFF" fill-rule="evenodd"/><text font-family="UD Digi Kyokasho NP,UD Digi Kyokasho NP_MSFontService,sans-serif" font-weight="700" font-size="48" transform="translate(624.5 610)">8</text><path d="M693.104 547 697.287 552.07C704.682 563.016 709 576.211 709 590.416 709 623.559 685.49 651.211 654.238 657.607L640.417 659 640.414 659 629.971 658.21C619.754 656.649 610.279 652.833 602.07 647.287L597 643.104Z" fill="#595959" fill-rule="evenodd" fill-opacity="0.301961"/><path d="M502.5 227C502.5 189.169 533.169 158.5 571 158.5 608.832 158.5 639.5 189.169 639.5 227 639.5 264.832 608.832 295.5 571 295.5 533.169 295.5 502.5 264.832 502.5 227Z" stroke="#000000" stroke-width="3" stroke-miterlimit="8" fill="#1252D0" fill-rule="evenodd"/><path d="M540 228C540 210.327 554.327 196 572 196 589.673 196 604 210.327 604 228 604 245.673 589.673 260 572 260 554.327 260 540 245.673 540 228Z" fill="#FFFFFF" fill-rule="evenodd"/><text font-family="UD Digi Kyokasho NP,UD Digi Kyokasho NP_MSFontService,sans-serif" font-weight="700" font-size="48" transform="translate(555.089 246)">2</text><path d="M623.104 184 627.287 189.024C634.682 199.873 639 212.951 639 227.028 639 259.875 615.49 287.281 584.238 293.619L570.417 295 570.414 295 559.971 294.217C549.754 292.67 540.279 288.888 532.07 283.392L527 279.246Z" fill="#595959" fill-rule="evenodd" fill-opacity="0.301961"/><path d="M641.5 227C641.5 189.169 672.169 158.5 710 158.5 747.832 158.5 778.5 189.169 778.5 227 778.5 264.832 747.832 295.5 710 295.5 672.169 295.5 641.5 264.832 641.5 227Z" stroke="#000000" stroke-width="3" stroke-miterlimit="8" fill="#B00507" fill-rule="evenodd"/><path d="M679 228C679 210.327 693.327 196 711 196 728.673 196 743 210.327 743 228 743 245.673 728.673 260 711 260 693.327 260 679 245.673 679 228Z" fill="#FFFFFF" fill-rule="evenodd"/><text font-family="UD Digi Kyokasho NP,UD Digi Kyokasho NP_MSFontService,sans-serif" font-weight="700" font-size="48" transform="translate(693.911 246)">3</text><path d="M762.104 184 766.287 189.024C773.682 199.873 778 212.951 778 227.028 778 259.875 754.49 287.281 723.238 293.619L709.417 295 709.414 295 698.971 294.217C688.754 292.67 679.279 288.888 671.07 283.392L666 279.246Z" fill="#595959" fill-rule="evenodd" fill-opacity="0.301961"/><path d="M432.5 348C432.5 310.169 463.169 279.5 501 279.5 538.832 279.5 569.5 310.169 569.5 348 569.5 385.832 538.832 416.5 501 416.5 463.169 416.5 432.5 385.832 432.5 348Z" stroke="#000000" stroke-width="3" stroke-miterlimit="8" fill="#CA5B86" fill-rule="evenodd"/><path d="M470 349C470 331.327 484.327 317 502 317 519.673 317 534 331.327 534 349 534 366.673 519.673 381 502 381 484.327 381 470 366.673 470 349Z" fill="#FFFFFF" fill-rule="evenodd"/><text font-family="UD Digi Kyokasho NP,UD Digi Kyokasho NP_MSFontService,sans-serif" font-weight="700" font-size="48" transform="translate(484.652 367)">4</text><path d="M553.104 305 557.287 310.024C564.682 320.873 569 333.951 569 348.028 569 380.875 545.49 408.281 514.238 414.619L500.417 416 500.414 416 489.971 415.217C479.754 413.67 470.279 409.888 462.07 404.392L457 400.246Z" fill="#595959" fill-rule="evenodd" fill-opacity="0.301961"/><path d="M710.5 348C710.5 310.169 741.169 279.5 779 279.5 816.832 279.5 847.5 310.169 847.5 348 847.5 385.832 816.832 416.5 779 416.5 741.169 416.5 710.5 385.832 710.5 348Z" stroke="#000000" stroke-width="3" stroke-miterlimit="8" fill="#DB5E03" fill-rule="evenodd"/><path d="M748 349C748 331.327 762.327 317 780 317 797.673 317 812 331.327 812 349 812 366.673 797.673 381 780 381 762.327 381 748 366.673 748 349Z" fill="#FFFFFF" fill-rule="evenodd"/><text font-family="UD Digi Kyokasho NP,UD Digi Kyokasho NP_MSFontService,sans-serif" font-weight="700" font-size="48" transform="translate(763.297 367)">5</text><path d="M831.104 305 835.287 310.024C842.682 320.873 847 333.951 847 348.028 847 380.875 823.49 408.281 792.238 414.619L778.417 416 778.414 416 767.971 415.217C757.754 413.67 748.279 409.888 740.07 404.392L735 400.246Z" fill="#595959" fill-rule="evenodd" fill-opacity="0.301961"/><path d="M640.5 469C640.5 431.169 671.169 400.5 709 400.5 746.832 400.5 777.5 431.169 777.5 469 777.5 506.832 746.832 537.5 709 537.5 671.169 537.5 640.5 506.832 640.5 469Z" stroke="#000000" stroke-width="3" stroke-miterlimit="8" fill="#823700" fill-rule="evenodd"/><path d="M678 470C678 452.327 692.327 438 710 438 727.673 438 742 452.327 742 470 742 487.673 727.673 502 710 502 692.327 502 678 487.673 678 470Z" fill="#FFFFFF" fill-rule="evenodd"/><text font-family="UD Digi Kyokasho NP,UD Digi Kyokasho NP_MSFontService,sans-serif" font-weight="700" font-size="48" transform="translate(693 488)">7</text><path d="M761.104 426 765.287 431.024C772.682 441.873 777 454.951 777 469.028 777 501.875 753.49 529.281 722.238 535.619L708.417 537 708.414 537 697.971 536.217C687.754 534.67 678.279 530.888 670.07 525.392L665 521.246Z" fill="#595959" fill-rule="evenodd" fill-opacity="0.301961"/><path d="M503.5 469C503.5 431.169 534.169 400.5 572 400.5 609.832 400.5 640.5 431.169 640.5 469 640.5 506.832 609.832 537.5 572 537.5 534.169 537.5 503.5 506.832 503.5 469Z" stroke="#000000" stroke-width="3" stroke-miterlimit="8" fill="#03842C" fill-rule="evenodd"/><path d="M541 470C541 452.327 555.327 438 573 438 590.673 438 605 452.327 605 470 605 487.673 590.673 502 573 502 555.327 502 541 487.673 541 470Z" fill="#FFFFFF" fill-rule="evenodd"/><text font-family="UD Digi Kyokasho NP,UD Digi Kyokasho NP_MSFontService,sans-serif" font-weight="700" font-size="48" transform="translate(556 488)">6</text><path d="M624.104 426 628.287 431.024C635.682 441.873 640 454.951 640 469.028 640 501.875 616.49 529.281 585.238 535.619L571.417 537 571.414 537 560.971 536.217C550.754 534.67 541.279 530.888 533.07 525.392L528 521.246Z" fill="#595959" fill-rule="evenodd" fill-opacity="0.301961"/><path d="M571.5 348C571.5 310.169 602.169 279.5 640 279.5 677.832 279.5 708.5 310.169 708.5 348 708.5 385.832 677.832 416.5 640 416.5 602.169 416.5 571.5 385.832 571.5 348Z" stroke="#000000" stroke-width="3" stroke-miterlimit="8" fill="#FFFFFF" fill-rule="evenodd"/><path d="M587.218 304 692.783 304 697.216 309.334C704.656 320.267 709 333.447 709 347.633 709 361.82 704.656 375 697.216 385.932L692.173 392 587.827 392 582.784 385.932C575.344 375 571 361.82 571 347.633 571 333.447 575.344 320.267 582.784 309.334Z" fill="#D3AC16" fill-rule="evenodd"/><path d="M610 349C610 331.327 624.327 317 642 317 659.673 317 674 331.327 674 349 674 366.673 659.673 381 642 381 624.327 381 610 366.673 610 349Z" fill="#FFFFFF" fill-rule="evenodd"/><text font-family="UD Digi Kyokasho NP,UD Digi Kyokasho NP_MSFontService,sans-serif" font-weight="700" font-size="48" transform="translate(624.5 367)">9</text><path d="M692.246 305 696.391 310.024C703.72 320.873 708 333.951 708 348.028 708 380.875 684.7 408.281 653.727 414.619L640.03 416 640.026 416 629.677 415.217C619.551 413.67 610.161 409.888 602.024 404.392L597 400.246Z" fill="#595959" fill-rule="evenodd" fill-opacity="0.301961"/></g></svg>