<svg width="429" height="423" xmlns="http://www.w3.org/2000/svg" xmlns:xlink="http://www.w3.org/1999/xlink" overflow="hidden"><g transform="translate(-434 -59)"><path d="M677.342 98 677.342 118.693 683.416 118.168C687.509 117.625 697.031 117.568 701.16 117.604 713.469 118.685 715.799 116.845 724.468 122.146 736.004 129.2 765.528 144.062 773.674 166.261L777.555 175.778C779.713 180.071 779.874 183.568 782.033 187.861 789.617 207.115 788.545 227.35 778.619 244 779.266 212.051 757.923 178.546 724.204 158.577L711.567 152.035 710.502 151.851C702.49 150.707 694.34 149.276 684.722 148.83 682.529 148.792 679.536 149.351 677.342 149.312L677.342 168.675 632 133.337 677.342 98Z" fill="#FFFFFF" fill-rule="evenodd"/><path d="M603.658 467 603.658 446.307 597.584 446.832C593.491 447.375 583.969 447.432 579.839 447.396 567.53 446.315 565.201 448.155 556.532 442.854 544.995 435.8 515.472 420.939 507.326 398.74L503.445 389.222C501.287 384.929 501.126 381.432 498.967 377.14 491.383 357.885 492.455 337.65 502.38 321 501.734 352.949 523.077 386.455 556.796 406.423L569.433 412.965 570.498 413.149C578.51 414.293 586.66 415.724 596.278 416.17 598.471 416.208 601.464 415.65 603.658 415.688L603.658 396.325 649 431.663 603.658 467Z" fill="#FFFFFF" fill-rule="evenodd"/><path d="M467 128.5C467 92.3253 496.325 63 532.5 63 568.675 63 598 92.3253 598 128.5 598 164.675 568.675 194 532.5 194 496.325 194 467 164.675 467 128.5Z" stroke="#FFFFFF" stroke-width="6" stroke-miterlimit="8" fill="none" fill-rule="evenodd"/><path d="M437 261C438.068 246.899 439.135 232.797 445.969 223.964 452.802 215.131 467.643 210.873 478 208" stroke="#FFFFFF" stroke-width="6" stroke-miterlimit="8" fill="none" fill-rule="evenodd"/><path d="M0 0 0.000104987 23.68" stroke="#FFFFFF" stroke-width="6" stroke-miterlimit="8" fill="none" fill-rule="evenodd" transform="matrix(1 0 0 -1 437 284.68)"/><path d="M0 0 113.92 0.64" stroke="#FFFFFF" stroke-width="6" stroke-miterlimit="8" fill="none" fill-rule="evenodd" transform="matrix(-1 0 0 1 591.92 207)"/><path d="M0 53C1.06771 38.8986 2.13542 24.7972 8.96875 15.9639 15.8021 7.13052 30.6432 2.87349 41 0" stroke="#FFFFFF" stroke-width="6" stroke-miterlimit="8" fill="none" fill-rule="evenodd" transform="matrix(-1 0 0 1 633 207)"/><path d="M633 283.68 633 260" stroke="#FFFFFF" stroke-width="6" stroke-miterlimit="8" fill="none" fill-rule="evenodd"/><path d="M692 324.5C692 288.325 721.549 259 758 259 794.451 259 824 288.325 824 324.5 824 360.675 794.451 390 758 390 721.549 390 692 360.675 692 324.5Z" stroke="#FFFFFF" stroke-width="6" stroke-miterlimit="8" fill="none" fill-rule="evenodd"/><path d="M663 457C664.068 442.899 665.135 428.797 671.969 419.964 678.802 411.131 693.643 406.874 704 404" stroke="#FFFFFF" stroke-width="6" stroke-miterlimit="8" fill="none" fill-rule="evenodd"/><path d="M0 0 0.000104987 23.68" stroke="#FFFFFF" stroke-width="6" stroke-miterlimit="8" fill="none" fill-rule="evenodd" transform="matrix(1 0 0 -1 663 480.68)"/><path d="M0 0 113.92 0.64" stroke="#FFFFFF" stroke-width="6" stroke-miterlimit="8" fill="none" fill-rule="evenodd" transform="matrix(-1 0 0 1 817.92 403)"/><path d="M0 53C1.06771 38.8986 2.13542 24.7972 8.96875 15.9639 15.8021 7.13052 30.6432 2.87349 41 0" stroke="#FFFFFF" stroke-width="6" stroke-miterlimit="8" fill="none" fill-rule="evenodd" transform="matrix(-1 0 0 1 859 403)"/><path d="M859 479.68 859 456" stroke="#FFFFFF" stroke-width="6" stroke-miterlimit="8" fill="none" fill-rule="evenodd"/></g></svg>