<svg width="251" height="248" xmlns="http://www.w3.org/2000/svg" xmlns:xlink="http://www.w3.org/1999/xlink" overflow="hidden"><g transform="translate(-565 -209)"><path d="M685.386 209 685.386 254.093 687.266 254.081C692.746 254.381 698.33 255.068 703.974 256.161 735.135 262.197 763.573 279.785 781.496 303.583L786.251 310.744 787.347 311.918C822.073 353.02 824.927 413.339 791.166 456 797.709 409.521 778.652 362.421 741.236 332.599 736.559 328.871 731.684 325.485 726.65 322.446L716.789 317.328 710.573 315.023C703.293 312.946 696.15 312.073 689.511 312.442L685.386 312.944 685.386 360.856 566 284.928Z" fill="#FFFFFF" fill-rule="evenodd"/></g></svg>