<svg width="174" height="332" xmlns="http://www.w3.org/2000/svg" xmlns:xlink="http://www.w3.org/1999/xlink" overflow="hidden"><g transform="translate(-555 -199)"><path d="M609.8 444.8 609.8 444.8 604.2 447.8C603.733 448.133 604.067 447.8 604 447.8L599.8 449.4 593 453.8 593 453.8 588.2 457.2C586.7 458.567 584.9 461.133 584 462L584 462C584.467 462.467 584.233 463.2 585.4 463.4 586.567 463.6 590.067 463.233 591 463.2L591 463.2 595.2 463.2 595.2 463.2 601.6 463 601.6 463C602.4 462.867 606 461.8 606.4 462.2L603.4 469 603.4 469C603.167 470.167 602.467 473.633 602 476L600.2 487.6 600.2 487.6 599.8 495C599.567 497.567 599.067 500.467 598.8 503L597.8 511.4 597 520.8 596.8 525.4 596.8 525.4 596.8 529.8 596.8 529.8 600 530 604.6 526.8 604.6 526.8 608.6 522.4C610 520.967 611.633 518.867 613 518.2 614.367 517.533 614.1 518 616.8 518.4 619.5 518.8 625.433 520.167 629.2 520.6L639.4 521.4 645.8 522 654.4 522.2 663.2 522.2 663.2 522.2C665 522.167 669.333 522.033 672.2 521.8 675.067 521.567 678.267 521.2 680.4 520.8L680.4 520.8C682.318 520.357 682.767 520.367 684.4 520 686.033 519.633 688.667 518.633 690.2 518.6 691.733 518.567 693.233 519.533 693.6 519.8L696.2 524.2 698.2 526.8 701.4 529.6C702.467 529.133 703.967 529.067 704.6 528.2 705.233 527.333 705.167 525.2 705.2 524.4L704.8 520 704.8 520 703.8 512.4 703.8 512.4 702.2 505.6 702.2 505.6 701 497.4C700.5 494.233 699.656 489.756 699.2 486.6 699.089 485.822 698.378 479.244 698.267 478.467L696.8 468.8 696.8 468.8C696.5 467.467 695.333 462.133 695 460.8 694.667 459.467 694.867 460.8 694.8 460.8L694.8 460.8 693.4 455.8 693.4 455.8 701.2 451 708 446.2C709.367 444.867 712 442.033 712.8 441.2L714.6 437.2 715 434 712 434 712 434C711.233 434 708.1 434.467 706.4 434.8 704.7 435.133 703.367 435.667 701.8 436 700.233 436.333 698.667 436.533 697 436.8L691.8 437.6 687.4 438.2C684.675 437.705 685.945 437.8 683.6 437.8L683.6 437.8C680.201 437.573 681.602 437.6 679.4 437.6L679.4 437.6C678 437.8 674.9 438.2 672 438.8 669.1 439.4 665.5 440.433 662 441.2L654.2 442.8 646.2 443.2C641.872 443.46 646.42 443.4 642.4 443.4L642.4 443.4C636.734 443.646 639.335 443.6 634.6 443.6L634.6 443.6C628.94 444.139 631.806 444 626 444L626 444C621.553 444.834 623.884 444.543 619 444.8L619 444.8 609.8 444.8Z" fill="#EDEDED" fill-rule="evenodd"/><path d="M705.08 445.206 711.846 441 711.741 441.117 711.864 441 712 441 709.803 443.664C709.739 443.664 710.026 443.243 709.612 443.664 709.197 444.084 708.239 445.241 707.314 446.187L704.059 449.341 700.804 451.234C699.127 452.343 695.106 455.813 694 456 694.055 454.785 694.111 453.57 694.166 452.355L698.953 449.201 705.08 445.206Z" fill="#C9C9C9" fill-rule="evenodd"/><path d="M609 462C608.894 462.987 608.189 465.881 607.731 467.92 607.272 469.96 606.885 472.591 606.25 474.236L603.923 482.13 602.019 488.445 600.75 493.576 598.212 500.878 598 501 599.058 492.194 599.692 483.314 601.385 475.222 602.865 468.315C603.33 466.238 603.643 463.744 604.172 462.757L609 462Z" fill="#D2D2D2" fill-rule="evenodd"/><path d="M614.411 516 623.616 517.917 631.22 518.876 641.426 520.027 652.632 520.218 662.237 520.41 670.842 520.027 679.246 518.876 686.851 518.109 691.853 516.959 696 524 693.988 522.072C693.152 521.175 692.52 518.94 690.986 518.62 689.452 518.301 686.55 519.771 684.783 520.154L680.38 520.921C677.472 520.921 679.017 520.734 675.778 521.688 674.21 521.976 671.409 521.912 669.975 522.072L663.171 522.264 654.366 522.264 649.363 522.264 641.959 521.688 637.757 521.497C635.222 521.369 632.387 521.209 629.152 520.921 625.917 520.634 622.215 520.027 619.747 519.579 617.279 519.132 615.278 518.333 614.344 518.237L611 520.031 614.411 516Z" fill="#C9C9C9" fill-rule="evenodd"/><path d="M607.863 315.6 580.029 336.8 561.206 355.2 559.604 361 557.402 374.8 556 385.4 556 392 556 396.6 556 403.6 556.401 408.6 559.404 418.2 563.609 425.2 570.217 430.4 578.628 435.6 587.639 438.4 598.452 441.6 606.462 443.4 616.273 444 628.689 443.6 639.101 443.6 649.314 442.2 659.526 440.6 670.94 438.8 680.352 436.8 689.563 433.6 698.374 429.2C699.742 428.433 700.51 428.133 702.378 426.6L709.587 420 714.593 413C715.227 411.733 716.596 409.7 717.397 407L719.399 396.8 720 387.8 719.599 378 717.998 370.4C717.564 368.633 716.829 365.5 715.995 363.2L712.991 356.6 708.786 348.6 705.582 343.2 702.178 339.2 697.773 335.2 694.769 331.8 694.769 331.8 688.962 326.8C688.695 325.4 689.496 321.6 689.763 320L690.965 314 693.367 305 688.161 305 682.755 305.4 675.546 306.8 667.937 309.4 660.527 312.2 655.922 313.8 646.911 313.2 639.502 313.2 629.89 313.2 618.276 313.8 607.863 315.6Z" fill="#EDEDED" fill-rule="evenodd"/><path d="M556.14 393.047 557.602 396.314C557.836 397.498 557.736 398.546 558.203 400.373 558.671 402.199 559.839 405.682 560.407 407.272 560.974 408.861 560.941 408.489 561.609 409.91 562.276 411.33 563.678 414.442 564.413 415.794 565.381 417.384 566.382 418.365 567.417 419.447 568.452 420.529 568.753 421.037 570.622 422.288 572.492 423.539 575.429 425.704 578.634 426.955 581.839 428.206 586.446 429.153 589.851 429.796L597.463 431.013 608.88 432.637 618.895 433.245 628.71 433.651 637.724 434.057 648.14 433.651 659.757 433.448C664.164 433.076 670.039 432.129 674.58 431.419L686.998 429.187C689.536 428.511 692.073 428.139 694.61 427.158 697.147 426.177 699.323 424.91 702.221 423.302 704.719 421.999 710.565 418.153 712 417.51L711.836 417.824 705.827 423.099 702.422 426.549 698.816 429.187C696.68 430.371 691.973 432.535 689.602 433.651L684.595 435.883 675.181 438.724 659.557 440.753 644.534 443.188 628.71 443.797 610.883 444 602.671 442.783 593.457 440.753 587.648 438.521 579.836 435.883 574.027 432.637 568.018 428.984 560.807 421.476 557.803 414.78 556.401 408.286 556 403.214 556 396.111 556 393.201 556.14 393.047ZM556 393 556.14 393.047 556 393Z" fill="#D2D2D2" fill-rule="evenodd"/><path d="M560.995 305 570.568 306.2 580.74 308.4C582.801 308.933 586.059 309.967 588.719 310.6L599.688 313 610.06 314.8 615.445 317.6C616.479 319.037 618.47 322.033 619.235 323.4 620.365 326.067 621.628 330.367 622.227 333.6 622.825 336.833 623.257 340 622.825 342.8 622.393 345.6 621.163 348.567 619.634 350.4 618.105 352.233 616.376 352.7 613.65 353.8 610.924 354.9 607.068 356.167 603.279 357 600.52 357.5 594.968 358.367 590.913 358.8 587.921 359.033 581.871 359.367 578.945 359.6 574.857 359.8 569.438 359.967 566.38 360L560.596 359.8C559.698 359.033 560.734 356.8 560.995 355.4L562.158 351.4 563.587 345.8 562.989 339 560.995 330.6 559.598 320 559 312C559.665 309.667 558.934 307.133 560.995 305Z" fill="#964113" fill-rule="evenodd"/><path d="M659.623 340 655.727 341.548 653 344.645 653.974 345.613 655.922 346 661.377 345.613 661.377 345.613C661.95 345.406 663.195 345.097 664.299 344.645 665.403 344.194 667.968 343.581 668 342.903 666.611 340.971 667.195 340.581 664.494 340.581L659.623 340Z" fill="#2D2D2D" fill-rule="evenodd"/><path d="M651.5 353.371 653.772 355.306C657.766 355.514 656.249 355.5 658.317 355.5L658.317 355.5 661.622 355.5 661.622 355.5C663.677 354.858 662.828 354.919 664.101 354.919L664.101 354.919C664.652 354.661 665.268 354.5 665.754 354.145 665.926 354.02 666.041 353.754 665.96 353.565 665.226 351.845 665.341 354.11 665.341 352.791L665.341 352.791C663.987 348.988 665.184 352.59 664.514 350.082 664.343 349.44 664.507 349.502 664.101 349.502L664.101 349.502 666.167 353.178C668.627 354.225 667.607 354.145 669.059 354.145L669.059 354.145C672.708 353.944 671.398 353.952 672.984 353.952L672.984 353.952 675.876 352.984C676.304 351.18 676.924 351.243 676.082 351.243L676.082 350.856" stroke="#172C51" stroke-width="1.33333" stroke-miterlimit="8" fill="none" fill-rule="evenodd"/><path d="M629.925 345.465C628.781 342.062 629.269 338.828 631.014 338.241 632.76 337.654 635.103 339.937 636.247 343.339 637.391 346.742 636.903 349.976 635.158 350.563 633.412 351.15 631.069 348.868 629.925 345.465Z" fill="#2D2D2D" fill-rule="evenodd"/><path d="M676.223 342.593C675.22 339.699 675.422 337 676.675 336.566 677.927 336.132 679.755 338.127 680.758 341.022 681.761 343.916 681.559 346.614 680.306 347.048 679.054 347.482 677.226 345.488 676.223 342.593Z" fill="#2D2D2D" fill-rule="evenodd"/><path d="M561.5 311.5 567.047 315.9 571.406 318.9 575.566 321.9 577.745 323.7 579.132 326.1 581.51 330.7 582.5 333.5 582.5 333.5" stroke="#000000" stroke-width="1.33333" stroke-miterlimit="8" fill="none" fill-rule="evenodd"/><path d="M611.77 441.879 606 446.431 613.759 446.621C616.18 446.715 618.6 446.937 620.524 447L631.665 447 647.183 446.431C652.091 445.957 654.246 445.894 658.524 445.293L671.655 442.828C675.07 442.132 676.827 441.816 679.016 441.121L683.393 439.603C684.288 438.75 685.88 436.285 684.388 436L674.44 437.897C671.157 438.466 668.405 438.876 664.691 439.414L652.157 441.121 637.435 442.259 622.911 442.828C618.634 442.764 614.588 441.279 611.77 441.879Z" fill="#FF0000" fill-rule="evenodd"/><path d="M717 525 719.75 200 725.25 200 728 525Z" fill="#110C06" fill-rule="evenodd"/><path d="M717.216 500 727.784 500 728 525 717 525Z" fill="#632709" fill-rule="evenodd"/><path d="M718.442 387 727.558 387 728 436 718 436Z" fill="#632709" fill-rule="evenodd"/><path d="M719.51 207 725.49 207 727 375 718 375Z" fill="#FAE0C5" fill-rule="evenodd"/><path d="M720.061 202 725.939 202 726 209 720 209Z" fill="#FEF7F7" fill-rule="evenodd"/></g></svg>